PathFileType	4	(X/Y/Z)	/Users/mathieubourgeois/Desktop/Analyse/Traitement/Sujet_05/Data/Transformed_Sujet_05_velo_100.trc
DataRate	CameraRate	NumFrames	NumMarkers	Units	OrigDataRate	OrigDataStartFrame	OrigNumFrames
120.000000	120.000000	5	36	mm	120.000000	1202	1924
Frame#	Time	RFHD			RANE			STRN			LANI			LKNE			T10			RHUM			RWRB			C7			LFWT			LTOE			RTOE			LWRA			LBWT			RBWT			RFWT			LKNI			RKNI			RKNE			LANE			RANI			LHEE			RHEE			LHUM			LRAD			RRAD			RWRA			LWRB			LFHD			LBHD			RBHD			RSHO			LSHO			CLAV			LCAR			RCAR			
		X1	Y1	Z1	X2	Y2	Z2	X3	Y3	Z3	X4	Y4	Z4	X5	Y5	Z5	X6	Y6	Z6	X7	Y7	Z7	X8	Y8	Z8	X9	Y9	Z9	X10	Y10	Z10	X11	Y11	Z11	X12	Y12	Z12	X13	Y13	Z13	X14	Y14	Z14	X15	Y15	Z15	X16	Y16	Z16	X17	Y17	Z17	X18	Y18	Z18	X19	Y19	Z19	X20	Y20	Z20	X21	Y21	Z21	X22	Y22	Z22	X23	Y23	Z23	X24	Y24	Z24	X25	Y25	Z25	X26	Y26	Z26	X27	Y27	Z27	X28	Y28	Z28	X29	Y29	Z29	X30	Y30	Z30	X31	Y31	Z31	X32	Y32	Z32	X33	Y33	Z33	X34	Y34	Z34	X35	Y35	Z35	X36	Y36	Z36	

1203	10.01666666666667	145.7283782958984	1356.617553710938	94.75739288330071	-141.7161560058594	314.4833984375	203.4081268310546	-201.3316802978516	1143.894775390625	23.43039894103994	-321.060546875	539.3883666992188	-59.58112716674813	-83.42570495605467	817.770263671875	-173.3947143554688	-330.8775024414062	1346.871948242188	32.30763244628893	33.58903884887693	1042.76171875	194.6428680419921	243.6173400878906	894.8572387695312	248.644790649414	-103.9519958496094	1413.165771484375	13.7156400680541	-367.0802917480469	1072.688232421875	-85.54076385498058	-268.0993957519531	369.323974609375	-81.82134246826178	30.85759925842283	216.6546173095703	160.2195281982422	279.2378845214844	940.42236328125	-155.3032836914063	-537.23095703125	1098.819946289062	-10.95792388916029	-520.11279296875	1106.714599609375	125.8535232543944	-352.4503784179688	1066.146484375	161.4136810302733	-75.8268356323242	792.7787475585938	-66.07261657714849	-113.5114364624024	675.2407836914062	118.0303726196288	-135.7525787353516	715.4231567382812	222.8105926513671	-343.8051452636719	555.9851684570312	-140.1103973388672	-105.3935852050781	323.6390991210938	123.2520065307617	-408.1349182128906	561.3734130859375	-93.7246856689454	-198.1200866699219	291.7372436523438	156.8371276855468	22.54630470275881	1041.505615234375	-157.5874328613282	67.62547302246097	1071.495849609375	-204.1485900878907	72.4515686035156	1076.947021484375	245.8237152099609	276.8076477050781	938.2006225585938	199.0731201171875	249.8769226074219	887.4904174804688	-189.4883728027344	154.5034637451172	1352.470825195312	-52.08563613891608	33.67798614501954	1445.500854492188	-67.49559783935555	19.73376083374023	1473.319702148438	64.86775970458976	-28.30955123901369	1330.156127929688	164.538116455078	-73.4983673095703	1323.91162109375	-138.6380615234376	-81.38067626953125	1269.345336914062	19.47309112548819	326.77978515625	936.912841796875	-228.2510986328125	324.0881347656249	929.3425903320312	287.3375854492188	
1204	10.025	145.7575836181641	1356.876220703125	92.65767669677727	-151.4668426513672	301.7087707519531	203.0763549804687	-201.1819915771484	1143.478515625	22.3778247833251	-314.0889587402344	553.3829956054688	-58.1465034484864	-77.36279296874997	830.8670043945312	-174.8191833496094	-331.0548706054688	1346.405517578125	32.2039985656737	32.99562454223631	1042.321166992188	194.5149230957031	243.4270782470703	894.8816528320312	248.5043792724609	-104.4520950317383	1413.12744140625	12.20710372924795	-366.6749572753906	1072.014770507812	-84.12044525146496	-257.0065002441406	384.8604431152344	-81.48851013183599	20.08094215393064	201.3129730224609	160.2359466552734	278.6326293945312	940.5437622070312	-155.715072631836	-536.5816650390625	1098.049438476562	-10.01016139984144	-519.0310668945312	1105.665771484375	127.0021972656249	-351.18701171875	1064.364379882812	161.6267089843749	-66.86290740966795	806.7892456054688	-67.05766296386724	-124.0217590332031	662.7415161132812	117.486213684082	-146.816635131836	702.9846801757812	222.1874847412109	-336.2806091308594	569.6128540039062	-139.0533447265626	-114.0714874267578	311.108154296875	123.3960571289062	-401.3777770996094	574.1055908203125	-92.30111694335945	-207.4542541503907	280.3698425292969	155.7955474853515	21.61457443237306	1040.986694335938	-158.0430755615235	66.533073425293	1070.814208984375	-204.8546447753907	71.87780761718747	1076.369140625	245.5219116210937	276.4889526367188	938.3313598632812	198.9534912109375	249.488998413086	887.47705078125	-189.7334442138672	154.1928100585938	1352.551879882812	-54.23161697387702	33.27460861206055	1445.451049804688	-69.40369415283212	19.61524391174316	1473.432006835938	62.91705703735342	-28.1484069824219	1330.039794921875	163.2539520263671	-74.58572387695311	1323.553955078125	-140.3162536621095	-81.48915863037109	1269.190185546875	18.03367424011222	326.33447265625	936.8721313476562	-228.5980682373047	323.9696655273437	929.3671264648438	287.1240539550781	
1205	10.03333333333333	145.6704406738281	1357.00634765625	90.88367462158196	-162.2377014160157	290.523193359375	202.6247100830078	-201.1508026123047	1143.310668945312	21.35822296142569	-304.763427734375	565.79638671875	-57.36954879760749	-71.77409362792966	844.106201171875	-175.9492492675782	-330.9965515136719	1346.212768554688	32.03960037231433	32.44385910034178	1041.957641601562	194.4461364746093	243.3224487304687	894.8629760742188	248.3980560302734	-104.7066802978516	1413.23974609375	10.75550270080556	-366.1163635253906	1071.37255859375	-83.41458892822277	-243.7846527099609	399.3440551757812	-81.49900054931646	7.888077735900859	186.7854461669922	160.4146575927734	278.250732421875	940.5860595703125	-156.0752105712891	-535.9434204101562	1097.641845703125	-9.293552398681774	-518.0357666015625	1104.994262695312	127.9127197265624	-350.1543579101562	1062.95703125	161.8595428466796	-60.14584350585937	820.9990234375	-67.85560607910163	-135.0045928955078	652.0197143554688	116.9439239501953	-158.1773681640625	692.0541381835938	221.5417175292968	-327.9664916992188	581.7939453125	-138.1235809326172	-123.5536880493164	299.8190612792969	123.4561996459961	-392.8582763671875	584.9082641601562	-91.34712982177743	-217.6590881347657	270.5934448242188	154.4027709960937	20.91215324401857	1040.546508789062	-158.5398406982422	65.63648986816409	1070.2744140625	-205.6032409667969	71.22582244873044	1075.976196289062	245.3373870849609	276.275390625	938.4674682617188	198.8951873779297	249.2195281982422	887.38427734375	-189.982177734375	154.0779876708984	1352.685668945312	-56.16945266723639	33.14702224731446	1445.571044921875	-71.24061584472665	19.76550292968749	1473.712036132812	61.08773040771475	-27.75795555114748	1330.002685546875	162.0571899414062	-75.32083129882811	1323.28564453125	-141.9509277343751	-81.45359039306641	1269.213623046875	16.62495994567862	325.9685974121094	936.70751953125	-228.9690551757813	323.9316406249999	929.3359375	286.990234375	
1206	10.04166666666667	146.1543426513672	1357.539794921875	88.9953308105468	-173.9104461669922	280.8126831054688	202.1081390380859	-200.7147674560547	1143.400146484375	20.37424087524404	-295.5519409179688	576.7190551757812	-56.07420730590827	-66.47177886962888	857.12548828125	-176.6872863769532	-330.7290954589844	1346.276000976562	31.82534217834461	32.09862518310545	1041.635864257812	194.2198486328124	243.287353515625	894.7835083007812	248.3810577392578	-104.6432189941406	1413.499389648438	9.308895111083885	-365.7438049316406	1071.130249023438	-82.75418090820324	-226.4586791992188	414.1657409667969	-81.89675903320318	-5.657788753509541	173.2837524414062	160.6388549804688	277.943359375	940.5745849609375	-156.4564361572266	-535.3727416992188	1097.675659179688	-8.811916351318493	-517.20361328125	1104.77490234375	128.5023345947264	-349.3414001464844	1061.878173828125	161.7399291992186	-57.07535552978515	835.667236328125	-68.72915649414068	-145.3312835693359	642.3399047851562	115.8340377807617	-169.4918060302735	682.634033203125	220.8630828857421	-318.7002868652344	592.3470458984375	-137.3534698486329	-133.887924194336	290.0021667480469	123.5472335815429	-384.0400390625	593.5885009765625	-89.79196166992196	-228.728012084961	262.4118957519531	152.8294830322265	20.45034027099611	1040.314086914062	-159.0743408203126	65.14035797119143	1069.87646484375	-206.3459167480469	70.69673156738278	1075.871215820312	245.2891235351562	276.1529846191406	938.5425415039062	198.9318695068359	249.0722045898438	887.2525634765625	-190.2364654541016	154.1603240966797	1352.907470703125	-57.93280792236335	33.2502670288086	1445.803344726562	-72.92210388183602	19.99903488159179	1474.059692382812	59.36878204345694	-27.23230171203615	1329.971923828125	160.9533691406249	-75.73950958251952	1323.120361328125	-143.5054931640626	-81.21633148193359	1269.470581054688	15.26546096801749	325.8353881835938	936.4699096679688	-229.2522125244141	323.9657592773437	929.1968994140625	286.9580993652344	
1207	10.05	146.5875854492188	1357.980834960938	87.44724273681634	-186.4804382324219	272.7057800292969	201.5685577392578	-200.1912536621094	1143.734008789062	19.37252998352041	-284.7292175292969	586.8352661132812	-55.21325302124031	-62.17301177978513	870.9954223632812	-175.9272613525391	-330.2203063964844	1346.553466796875	31.56433868408191	31.90599250793455	1041.299926757812	193.873306274414	243.3319549560547	894.635009765625	248.4315338134765	-104.2442092895508	1413.777099609375	7.957942008972069	-365.5232543945312	1071.595825195312	-82.22698211669933	-213.3936157226562	424.6897583007812	-81.28762054443365	-20.36472702026369	161.2113189697266	160.9442138671875	277.865234375	940.5352783203125	-156.7839050292969	-534.8982543945312	1098.203247070312	-8.650894165039196	-516.5562133789062	1105.0087890625	128.7444000244139	-348.7456665039062	1061.505249023438	161.7032012939452	-51.07274627685546	849.1884765625	-68.8227157592774	-157.2001495361328	634.5686645507812	115.1538314819335	-180.0791473388672	674.9730224609375	219.7835693359374	-308.7516784667969	601.409423828125	-136.6762237548829	-145.1722564697266	281.6277770996094	123.5951156616211	-374.4204406738281	600.6878662109375	-88.99402618408212	-240.7874603271485	255.8827972412109	151.3573150634765	20.30215835571291	1040.175048828125	-159.7505493164063	64.93756866455081	1069.60595703125	-207.0862731933594	70.35985565185544	1075.512329101562	245.0679016113281	276.1620788574219	938.5216674804688	199.0631866455078	249.0970611572266	887.119140625	-190.4496154785157	154.4786224365234	1353.200927734375	-59.48754882812506	33.57741165161134	1446.115234375	-74.50549316406259	20.46929168701171	1474.513793945312	57.77378845214835	-26.47690200805666	1329.965942382812	159.927520751953	-75.80043029785155	1323.057250976562	-144.9337615966798	-80.80563354492188	1269.868286132812	13.99784564971915	325.9209899902344	936.1724243164062	-229.4238433837891	324.1035461425781	928.9617919921875	287.0136413574219	
